<svg xmlns="http://www.w3.org/2000/svg" width="1214.772" height="1518.874">
    <path d="M1995.726 4769.763c-17.987-2.505-24.198-3.812-35.625-7.495-25.592-8.25-44.24-19.731-63.771-39.261-19.542-19.542-31.036-38.218-39.249-63.772-5.803-18.058-7.49-29.038-7.49-48.75 0-19.711 1.687-30.692 7.49-48.75 8.213-25.554 19.707-44.23 39.249-63.771 19.542-19.543 38.217-31.036 63.771-39.249 18.059-5.804 29.039-7.49 48.75-7.49 19.712 0 30.692 1.686 48.75 7.49 25.555 8.213 44.23 19.706 63.772 39.248 19.542 19.543 31.036 38.218 39.248 63.772 5.804 18.058 7.491 29.039 7.491 48.75 0 19.712-1.687 30.692-7.49 48.75-8.213 25.554-19.707 44.23-39.249 63.772-23.667 23.667-50.922 38.227-83.074 44.378-9.993 1.912-35.636 3.345-42.573 2.378zm447.5 0c-17.987-2.505-24.198-3.812-35.625-7.495-25.592-8.25-44.24-19.731-63.771-39.261-19.542-19.542-31.036-38.218-39.249-63.772-5.803-18.058-7.49-29.038-7.49-48.75 0-19.711 1.687-30.692 7.49-48.75 8.213-25.554 19.707-44.23 39.249-63.771 19.542-19.543 38.217-31.036 63.771-39.249 18.059-5.804 29.039-7.49 48.75-7.49 19.712 0 30.692 1.686 48.75 7.49 25.555 8.213 44.23 19.706 63.772 39.248 19.542 19.543 31.036 38.218 39.249 63.772 5.803 18.058 7.49 29.039 7.49 48.75 0 19.712-1.687 30.692-7.49 48.75-8.213 25.554-19.707 44.23-39.249 63.772-23.667 23.667-50.922 38.227-83.074 44.378-9.993 1.912-35.636 3.345-42.572 2.378zm-896.25-447.5c-17.987-2.505-24.198-3.812-35.625-7.495-25.592-8.25-44.24-19.731-63.771-39.261-19.542-19.542-31.036-38.218-39.249-63.772-5.803-18.058-7.49-29.038-7.49-48.75 0-19.711 1.687-30.692 7.49-48.75 8.213-25.554 19.707-44.23 39.249-63.772s38.217-31.035 63.771-39.248c18.059-5.804 29.039-7.49 48.75-7.49 19.712 0 30.692 1.686 48.75 7.49 25.555 8.213 44.23 19.706 63.772 39.248 19.542 19.542 31.036 38.218 39.248 63.772 5.804 18.058 7.491 29.038 7.491 48.75s-1.687 30.692-7.49 48.75c-8.213 25.554-19.707 44.23-39.249 63.772-23.667 23.667-50.922 38.227-83.074 44.378-9.993 1.912-35.636 3.345-42.573 2.378zm448.75 0c-17.987-2.505-24.198-3.812-35.625-7.495-25.592-8.25-44.24-19.731-63.771-39.261-19.542-19.542-31.036-38.218-39.249-63.772-5.803-18.058-7.49-29.038-7.49-48.75 0-19.711 1.687-30.692 7.49-48.75 8.213-25.554 19.707-44.23 39.249-63.772s38.217-31.035 63.771-39.248c18.059-5.804 29.039-7.49 48.75-7.49 19.712 0 30.692 1.686 48.75 7.49 25.555 8.213 44.23 19.706 63.772 39.248 19.542 19.542 31.036 38.218 39.248 63.772 5.804 18.058 7.491 29.038 7.491 48.75s-1.687 30.692-7.49 48.75c-8.213 25.554-19.707 44.23-39.249 63.772-23.667 23.667-50.922 38.227-83.074 44.378-9.993 1.912-35.636 3.345-42.573 2.378zm447.5 0c-17.987-2.505-24.198-3.812-35.625-7.495-25.592-8.25-44.24-19.731-63.771-39.261-19.542-19.542-31.036-38.218-39.249-63.772-5.803-18.058-7.49-29.038-7.49-48.75 0-19.711 1.687-30.692 7.49-48.75 8.213-25.554 19.707-44.23 39.249-63.772s38.217-31.035 63.771-39.248c18.059-5.804 29.039-7.49 48.75-7.49 19.712 0 30.692 1.686 48.75 7.49 25.555 8.213 44.23 19.706 63.772 39.248 19.542 19.542 31.036 38.218 39.249 63.772 5.803 18.058 7.49 29.038 7.49 48.75s-1.687 30.692-7.49 48.75c-8.213 25.554-19.707 44.23-39.249 63.772-23.667 23.667-50.922 38.227-83.074 44.378-9.993 1.912-35.636 3.345-42.572 2.378zm-896.25-448.75c-17.987-2.505-24.198-3.812-35.625-7.495-25.592-8.25-44.24-19.731-63.771-39.261-19.542-19.542-31.036-38.218-39.249-63.772-5.803-18.058-7.49-29.039-7.49-48.75 0-19.712 1.687-30.692 7.49-48.75 8.213-25.554 19.707-44.23 39.249-63.772s38.217-31.035 63.771-39.248c18.059-5.804 29.039-7.49 48.75-7.49 19.712 0 30.692 1.686 48.75 7.49 25.555 8.213 44.23 19.706 63.772 39.248 19.542 19.542 31.036 38.218 39.248 63.772 5.804 18.058 7.491 29.038 7.491 48.75 0 19.711-1.687 30.692-7.49 48.75-8.213 25.554-19.707 44.23-39.249 63.772-23.667 23.667-50.922 38.227-83.074 44.378-9.993 1.912-35.636 3.345-42.573 2.378zm448.75 0c-17.987-2.505-24.198-3.812-35.625-7.495-25.592-8.25-44.24-19.731-63.771-39.261-19.542-19.542-31.036-38.218-39.249-63.772-5.803-18.058-7.49-29.039-7.49-48.75 0-19.712 1.687-30.692 7.49-48.75 8.213-25.554 19.707-44.23 39.249-63.772s38.217-31.035 63.771-39.248c18.059-5.804 29.039-7.49 48.75-7.49 19.712 0 30.692 1.686 48.75 7.49 25.555 8.213 44.23 19.706 63.772 39.248 19.542 19.542 31.036 38.218 39.248 63.772 5.804 18.058 7.491 29.038 7.491 48.75 0 19.711-1.687 30.692-7.49 48.75-8.213 25.554-19.707 44.23-39.249 63.772-23.667 23.667-50.922 38.227-83.074 44.378-9.993 1.912-35.636 3.345-42.573 2.378z"
          fill="#FC6719" transform="translate(-1400.84 -3554.974)"/>
</svg>