<svg xmlns="http://www.w3.org/2000/svg" style="display: none;">
    <symbol id="sprite" viewBox="0 0 1214.7719 1518.8738749999998">
        <g transform="translate(-1400.8405,-3554.9741)">
            <path d="m 1995.7264,4769.7634 c -17.9877,-2.5056 -24.1988,-3.8125 -35.625,-7.4956 -25.592,-8.2494 -44.2413,-19.7309 -63.7715,-39.2611 -19.5421,-19.5421 -31.0358,-38.2173 -39.2485,-63.7716 -5.8036,-18.0583 -7.4908,-29.0385 -7.4908,-48.75 0,-19.7115 1.6872,-30.6918 7.4908,-48.75 8.2127,-25.5543 19.7064,-44.2296 39.2485,-63.7716 19.542,-19.542 38.2173,-31.0358 63.7715,-39.2485 18.0583,-5.8036 29.0385,-7.4908 48.7501,-7.4908 19.7115,0 30.6917,1.6872 48.75,7.4908 25.5542,8.2127 44.2295,19.7065 63.7715,39.2485 19.5421,19.542 31.0358,38.2173 39.2485,63.7716 5.8036,18.0582 7.4908,29.0385 7.4908,48.75 0,19.7115 -1.6872,30.6917 -7.4908,48.75 -8.2127,25.5543 -19.7064,44.2295 -39.2485,63.7716 -23.6672,23.6672 -50.9222,38.2271 -83.074,44.3787 -9.993,1.912 -35.6357,3.3443 -42.5726,2.378 z m 447.5001,0 c -17.9877,-2.5056 -24.1988,-3.8125 -35.625,-7.4956 -25.5921,-8.2494 -44.2413,-19.7309 -63.7716,-39.2611 -19.542,-19.5421 -31.0358,-38.2173 -39.2485,-63.7716 -5.8036,-18.0583 -7.4908,-29.0385 -7.4908,-48.75 0,-19.7115 1.6872,-30.6918 7.4908,-48.75 8.2127,-25.5543 19.7065,-44.2296 39.2485,-63.7716 19.542,-19.542 38.2173,-31.0358 63.7716,-39.2485 18.0582,-5.8036 29.0385,-7.4908 48.75,-7.4908 19.7115,0 30.6917,1.6872 48.75,7.4908 25.5543,8.2127 44.2295,19.7065 63.7716,39.2485 19.542,19.542 31.0358,38.2173 39.2485,63.7716 5.8036,18.0582 7.4908,29.0385 7.4908,48.75 0,19.7115 -1.6872,30.6917 -7.4908,48.75 -8.2127,25.5543 -19.7065,44.2295 -39.2485,63.7716 -23.6673,23.6672 -50.9223,38.2271 -83.0741,44.3787 -9.993,1.912 -35.6357,3.3443 -42.5725,2.378 z m -896.2501,-447.5 c -17.9877,-2.5057 -24.1988,-3.8125 -35.625,-7.4957 -25.5921,-8.2494 -44.2413,-19.7308 -63.7716,-39.2611 -19.542,-19.542 -31.0358,-38.2173 -39.2485,-63.7715 -5.8036,-18.0583 -7.4908,-29.0385 -7.4908,-48.75 0,-19.7116 1.6872,-30.6918 7.4908,-48.7501 8.2127,-25.5542 19.7065,-44.2295 39.2485,-63.7715 19.5421,-19.5421 38.2173,-31.0358 63.7716,-39.2485 18.0583,-5.8036 29.0385,-7.4908 48.75,-7.4908 19.7115,0 30.6918,1.6872 48.75,7.4908 25.5543,8.2127 44.2296,19.7064 63.7716,39.2485 19.542,19.542 31.0358,38.2173 39.2485,63.7715 5.8036,18.0583 7.4908,29.0385 7.4908,48.7501 0,19.7115 -1.6872,30.6917 -7.4908,48.75 -8.2127,25.5542 -19.7065,44.2295 -39.2485,63.7715 -23.6673,23.6673 -50.9223,38.2271 -83.0741,44.3788 -9.993,1.9119 -35.6356,3.3443 -42.5725,2.378 z m 448.75,0 c -17.9877,-2.5057 -24.1988,-3.8125 -35.625,-7.4957 -25.592,-8.2494 -44.2413,-19.7308 -63.7715,-39.2611 -19.5421,-19.542 -31.0358,-38.2173 -39.2485,-63.7715 -5.8036,-18.0583 -7.4908,-29.0385 -7.4908,-48.75 0,-19.7115 1.6872,-30.6917 7.4908,-48.75 8.2127,-25.5543 19.7064,-44.2295 39.2485,-63.7716 19.542,-19.5421 38.2173,-31.0358 63.7715,-39.2485 18.0583,-5.8036 29.0385,-7.4908 48.7501,-7.4908 19.7115,0 30.6917,1.6872 48.75,7.4908 25.5542,8.2127 44.2295,19.7064 63.7715,39.2485 19.5421,19.5421 31.0358,38.2173 39.2485,63.7716 5.8036,18.0583 7.4908,29.0385 7.4908,48.75 0,19.7115 -1.6872,30.6918 -7.4908,48.75 -8.2127,25.5543 -19.7064,44.2296 -39.2485,63.7716 -23.6672,23.6673 -50.9222,38.2271 -83.074,44.3787 -9.993,1.912 -35.6357,3.3444 -42.5726,2.378 z m 447.5001,0 c -17.9877,-2.5057 -24.1988,-3.8125 -35.625,-7.4957 -25.5921,-8.2494 -44.2413,-19.7308 -63.7716,-39.2611 -19.542,-19.542 -31.0358,-38.2173 -39.2485,-63.7715 -5.8036,-18.0583 -7.4908,-29.0385 -7.4908,-48.75 0,-19.7116 1.6872,-30.6918 7.4908,-48.7501 8.2127,-25.5542 19.7065,-44.2295 39.2485,-63.7715 19.542,-19.5421 38.2173,-31.0358 63.7716,-39.2485 18.0582,-5.8036 29.0385,-7.4908 48.75,-7.4908 19.7115,0 30.6917,1.6872 48.75,7.4908 25.5543,8.2127 44.2295,19.7064 63.7716,39.2485 19.542,19.542 31.0358,38.2173 39.2485,63.7715 5.8036,18.0583 7.4908,29.0385 7.4908,48.7501 0,19.7115 -1.6872,30.6917 -7.4908,48.75 -8.2127,25.5542 -19.7065,44.2295 -39.2485,63.7715 -23.6673,23.6673 -50.9223,38.2271 -83.0741,44.3788 -9.993,1.9119 -35.6357,3.3443 -42.5725,2.378 z m -896.2501,-448.75 c -17.9877,-2.5057 -24.1988,-3.8125 -35.625,-7.4957 -25.5921,-8.2494 -44.2413,-19.7308 -63.7716,-39.2611 -19.542,-19.542 -31.0358,-38.2173 -39.2485,-63.7716 -5.8036,-18.0582 -7.4908,-29.0385 -7.4908,-48.75 0,-19.7115 1.6872,-30.6917 7.4908,-48.75 8.2127,-25.5543 19.7065,-44.2295 39.2485,-63.7716 19.5421,-19.542 38.2173,-31.0358 63.7716,-39.2485 18.0583,-5.8036 29.0385,-7.4908 48.75,-7.4908 19.7115,0 30.6918,1.6872 48.75,7.4908 25.5543,8.2127 44.2296,19.7065 63.7716,39.2485 19.542,19.5421 31.0358,38.2173 39.2485,63.7716 5.8036,18.0583 7.4908,29.0385 7.4908,48.75 0,19.7115 -1.6872,30.6918 -7.4908,48.75 -8.2127,25.5543 -19.7065,44.2296 -39.2485,63.7716 -23.6673,23.6673 -50.9223,38.2271 -83.0741,44.3787 -9.993,1.912 -35.6356,3.3444 -42.5725,2.378 z m 448.75,0 c -17.9877,-2.5057 -24.1988,-3.8125 -35.625,-7.4957 -25.592,-8.2494 -44.2413,-19.7308 -63.7715,-39.2611 -19.5421,-19.542 -31.0358,-38.2173 -39.2485,-63.7716 -5.8036,-18.0582 -7.4908,-29.0385 -7.4908,-48.75 0,-19.7115 1.6872,-30.6917 7.4908,-48.75 8.2127,-25.5543 19.7064,-44.2295 39.2485,-63.7716 19.542,-19.5421 38.2173,-31.0358 63.7715,-39.2485 18.0583,-5.8036 29.0385,-7.4908 48.7501,-7.4908 19.7115,0 30.6917,1.6872 48.75,7.4908 25.5542,8.2127 44.2295,19.7064 63.7715,39.2485 19.5421,19.5421 31.0358,38.2173 39.2485,63.7716 5.8036,18.0583 7.4908,29.0385 7.4908,48.75 0,19.7115 -1.6872,30.6918 -7.4908,48.75 -8.2127,25.5543 -19.7064,44.2296 -39.2485,63.7716 -23.6672,23.6673 -50.9222,38.2271 -83.074,44.3787 -9.993,1.912 -35.6357,3.3444 -42.5726,2.378 z"/>
        </g>
    </symbol>
</svg>
