<svg xmlns="http://www.w3.org/2000/svg" xmlns:xlink="http://www.w3.org/1999/xlink" version="1.1" x="0px" y="0px" viewBox="0 0 110 137.5" enable-background="new 0 0 110 110" xml:space="preserve"><g><path d="M66,15v3h-3v-3h-6.54c-0.14-0.17-0.29-0.32-0.46-0.46V10h-8v4.54c-1.23,1.09-2,2.69-2,4.46s0.77,3.37,2,4.46v3.38   c-3.53,1.54-6,5.07-6,9.16v61c0,1.65,1.35,3,3,3h14c1.65,0,3-1.35,3-3V36c0-4.09-2.47-7.62-6-9.16v-3.38   c0.17-0.14,0.32-0.29,0.46-0.46H63v-3h3v3h2v-8H66z M50,12h4v1.35C53.37,13.12,52.7,13,52,13s-1.37,0.12-2,0.35V12z M60,36v61   c0,0.55-0.45,1-1,1H45c-0.55,0-1-0.45-1-1V36c0-4.41,3.59-8,8-8S60,31.59,60,36z M50,26.2v-1.55c0.63,0.23,1.3,0.35,2,0.35   s1.37-0.12,2-0.35v1.55c-0.64-0.13-1.31-0.2-2-0.2S50.64,26.07,50,26.2z M52,23c-2.21,0-4-1.79-4-4s1.79-4,4-4s4,1.79,4,4   S54.21,23,52,23z M61,21h-3.35C57.88,20.37,58,19.7,58,19s-0.12-1.37-0.35-2H61V21z"/></g>
    </svg>